<mxfile host="app.diagrams.net" modified="2023-12-03T10:11:13.943Z" agent="Mozilla/5.0 (Windows NT 10.0; Win64; x64) AppleWebKit/537.36 (KHTML, like Gecko) Chrome/121.0.0.0 Safari/537.36 Edg/121.0.0.0" etag="RIDGVCbrNzCETsaE9KKw" version="22.1.5" type="device">
  <diagram name="Page-1" id="uZ3OU5pdZBP6D6zqTWE5">
    <mxGraphModel dx="1282" dy="557" grid="1" gridSize="10" guides="1" tooltips="1" connect="1" arrows="1" fold="1" page="1" pageScale="1" pageWidth="850" pageHeight="1100" math="0" shadow="0">
      <root>
        <mxCell id="0" />
        <mxCell id="1" parent="0" />
        <mxCell id="-3wzFjzAV5iXs3W9r8vI-2" value="" style="swimlane;startSize=0;" parent="1" vertex="1">
          <mxGeometry x="130" y="30" width="460" height="260" as="geometry" />
        </mxCell>
        <mxCell id="-3wzFjzAV5iXs3W9r8vI-3" value="&lt;font style=&quot;font-size: 18px;&quot;&gt;HOTEL MANAGEMENT&lt;/font&gt;" style="text;html=1;align=center;verticalAlign=middle;resizable=0;points=[];autosize=1;strokeColor=none;fillColor=none;" parent="-3wzFjzAV5iXs3W9r8vI-2" vertex="1">
          <mxGeometry x="120" y="-5" width="220" height="40" as="geometry" />
        </mxCell>
        <mxCell id="-3wzFjzAV5iXs3W9r8vI-7" value="Đặt chỗ, hủy đặt chỗ (qua điện thoại)" style="ellipse;whiteSpace=wrap;html=1;" parent="-3wzFjzAV5iXs3W9r8vI-2" vertex="1">
          <mxGeometry x="320" y="50" width="100" height="60" as="geometry" />
        </mxCell>
        <mxCell id="-3wzFjzAV5iXs3W9r8vI-29" value="Đặt chỗ, hủy đặt chỗ" style="ellipse;whiteSpace=wrap;html=1;" parent="-3wzFjzAV5iXs3W9r8vI-2" vertex="1">
          <mxGeometry x="40" y="50" width="100" height="60" as="geometry" />
        </mxCell>
        <mxCell id="-3wzFjzAV5iXs3W9r8vI-37" value="include" style="endArrow=open;endSize=12;dashed=1;html=1;rounded=0;exitX=1;exitY=0.5;exitDx=0;exitDy=0;entryX=0;entryY=0.5;entryDx=0;entryDy=0;" parent="-3wzFjzAV5iXs3W9r8vI-2" source="-3wzFjzAV5iXs3W9r8vI-29" target="-3wzFjzAV5iXs3W9r8vI-7" edge="1">
          <mxGeometry width="160" relative="1" as="geometry">
            <mxPoint x="140" y="60" as="sourcePoint" />
            <mxPoint x="300" y="60" as="targetPoint" />
          </mxGeometry>
        </mxCell>
        <mxCell id="-3wzFjzAV5iXs3W9r8vI-39" value="Không còn phòng trống" style="ellipse;whiteSpace=wrap;html=1;" parent="-3wzFjzAV5iXs3W9r8vI-2" vertex="1">
          <mxGeometry x="325" y="130" width="90" height="60" as="geometry" />
        </mxCell>
        <mxCell id="-3wzFjzAV5iXs3W9r8vI-47" value="Extends" style="endArrow=block;endSize=16;endFill=0;html=1;rounded=0;exitX=0;exitY=0.5;exitDx=0;exitDy=0;entryX=1;entryY=0.5;entryDx=0;entryDy=0;" parent="-3wzFjzAV5iXs3W9r8vI-2" source="-3wzFjzAV5iXs3W9r8vI-39" target="-3wzFjzAV5iXs3W9r8vI-29" edge="1">
          <mxGeometry width="160" relative="1" as="geometry">
            <mxPoint x="90" y="140" as="sourcePoint" />
            <mxPoint x="250" y="140" as="targetPoint" />
          </mxGeometry>
        </mxCell>
        <mxCell id="-3wzFjzAV5iXs3W9r8vI-15" value="Seller" style="shape=umlActor;verticalLabelPosition=bottom;verticalAlign=top;html=1;outlineConnect=0;" parent="1" vertex="1">
          <mxGeometry x="740" y="140" width="30" height="60" as="geometry" />
        </mxCell>
        <mxCell id="-3wzFjzAV5iXs3W9r8vI-16" value="" style="endArrow=none;html=1;rounded=0;exitX=0;exitY=0.3333333333333333;exitDx=0;exitDy=0;exitPerimeter=0;entryX=1;entryY=0.5;entryDx=0;entryDy=0;" parent="1" source="-3wzFjzAV5iXs3W9r8vI-15" target="-3wzFjzAV5iXs3W9r8vI-7" edge="1">
          <mxGeometry width="50" height="50" relative="1" as="geometry">
            <mxPoint x="350" y="100" as="sourcePoint" />
            <mxPoint x="670" y="100" as="targetPoint" />
          </mxGeometry>
        </mxCell>
        <mxCell id="-3wzFjzAV5iXs3W9r8vI-25" value="Khách hàng" style="shape=umlActor;verticalLabelPosition=bottom;verticalAlign=top;html=1;outlineConnect=0;" parent="1" vertex="1">
          <mxGeometry x="40" y="130" width="30" height="60" as="geometry" />
        </mxCell>
        <mxCell id="-3wzFjzAV5iXs3W9r8vI-34" value="" style="endArrow=none;html=1;rounded=0;entryX=0;entryY=0.5;entryDx=0;entryDy=0;exitX=1;exitY=0.3333333333333333;exitDx=0;exitDy=0;exitPerimeter=0;" parent="1" target="-3wzFjzAV5iXs3W9r8vI-29" edge="1" source="-3wzFjzAV5iXs3W9r8vI-25">
          <mxGeometry width="50" height="50" relative="1" as="geometry">
            <mxPoint x="70" y="270" as="sourcePoint" />
            <mxPoint x="120" y="220" as="targetPoint" />
          </mxGeometry>
        </mxCell>
      </root>
    </mxGraphModel>
  </diagram>
</mxfile>
